<svg width="250" height="220" viewBox="0 0 250 220" fill="none" xmlns="http://www.w3.org/2000/svg">
<g filter="url(#filter0_d_395_1774)">
<path d="M211.009 108.868C211.009 160.956 168.784 203.181 116.696 203.181C64.6083 203.181 22.3828 160.956 22.3828 108.868C22.3828 56.78 64.6083 14.5545 116.696 14.5545C168.784 14.5545 211.009 56.78 211.009 108.868ZM50.6768 108.868C50.6768 145.329 80.2346 174.887 116.696 174.887C153.157 174.887 182.715 145.329 182.715 108.868C182.715 72.4063 153.157 42.8485 116.696 42.8485C80.2346 42.8485 50.6768 72.4063 50.6768 108.868Z" fill="#EEEEEE"/>
</g>
<path d="M196.862 110.032C204.675 110.032 211.118 116.401 209.95 124.126C207.851 138.019 202.663 151.329 194.698 163.047C184.07 178.685 168.988 190.767 151.407 197.725C133.827 204.684 114.562 206.198 96.1102 202.071C77.6589 197.944 60.8739 188.367 47.9334 174.582C34.9929 160.797 26.4944 143.441 23.5407 124.766C20.5871 106.091 23.3146 86.9588 31.3694 69.8532C39.4242 52.7475 52.4344 38.4577 68.7115 28.8381C80.9097 21.6291 94.5207 17.2924 108.518 16.0741C116.302 15.3965 122.251 22.2283 121.758 30.0258V30.0258C121.264 37.8234 114.482 43.589 106.758 44.7652C98.4501 46.0302 90.4162 48.8766 83.1069 53.1963C71.7129 59.93 62.6058 69.9329 56.9674 81.9069C51.3291 93.8808 49.4198 107.273 51.4873 120.346C53.5549 133.418 59.5039 145.568 68.5622 155.217C77.6205 164.867 89.37 171.571 102.286 174.46C115.202 177.348 128.688 176.289 140.994 171.417C153.3 166.546 163.858 158.089 171.298 147.143C176.07 140.121 179.418 132.283 181.205 124.071C182.867 116.437 189.049 110.032 196.862 110.032V110.032Z" fill="url(#paint0_linear_395_1774)"/>
<path d="M106.558 98.872V101.075L98.5563 119.567H94.2355L102.238 102.07H91.9329V98.872H106.558ZM119.777 98.6588H120.374V101.928H120.132C119.052 101.928 118.09 102.089 117.247 102.411C116.404 102.733 115.688 103.193 115.101 103.79C114.523 104.377 114.077 105.088 113.765 105.922C113.461 106.756 113.31 107.689 113.31 108.722V112.162C113.31 112.901 113.381 113.554 113.523 114.123C113.675 114.682 113.888 115.151 114.163 115.53C114.447 115.9 114.779 116.179 115.158 116.369C115.537 116.549 115.963 116.639 116.437 116.639C116.882 116.639 117.285 116.544 117.645 116.355C118.014 116.165 118.327 115.9 118.583 115.559C118.848 115.208 119.047 114.801 119.18 114.336C119.322 113.862 119.393 113.346 119.393 112.787C119.393 112.228 119.322 111.711 119.18 111.238C119.047 110.764 118.848 110.356 118.583 110.015C118.318 109.665 117.996 109.395 117.616 109.205C117.237 109.016 116.811 108.921 116.337 108.921C115.693 108.921 115.124 109.073 114.632 109.376C114.148 109.669 113.769 110.049 113.495 110.513C113.22 110.977 113.073 111.465 113.054 111.977L111.817 111.181C111.846 110.451 111.997 109.76 112.272 109.106C112.557 108.452 112.945 107.874 113.438 107.372C113.94 106.86 114.542 106.462 115.243 106.178C115.944 105.884 116.735 105.737 117.616 105.737C118.583 105.737 119.431 105.922 120.161 106.291C120.9 106.661 121.516 107.168 122.008 107.812C122.501 108.457 122.871 109.2 123.117 110.044C123.363 110.887 123.487 111.787 123.487 112.744C123.487 113.749 123.321 114.682 122.989 115.544C122.667 116.407 122.198 117.16 121.582 117.804C120.976 118.449 120.246 118.951 119.393 119.311C118.54 119.671 117.583 119.851 116.522 119.851C115.423 119.851 114.423 119.652 113.523 119.254C112.632 118.847 111.865 118.278 111.22 117.548C110.576 116.819 110.079 115.952 109.728 114.947C109.387 113.943 109.216 112.844 109.216 111.65V110.058C109.216 108.39 109.458 106.865 109.941 105.481C110.434 104.088 111.14 102.885 112.059 101.871C112.978 100.848 114.087 100.056 115.385 99.4974C116.683 98.9384 118.147 98.6588 119.777 98.6588ZM125.874 103.946V102.852C125.874 102.065 126.045 101.35 126.386 100.706C126.727 100.061 127.229 99.5448 127.893 99.1563C128.556 98.7678 129.371 98.5736 130.337 98.5736C131.332 98.5736 132.162 98.7678 132.825 99.1563C133.498 99.5448 134 100.061 134.331 100.706C134.673 101.35 134.843 102.065 134.843 102.852V103.946C134.843 104.714 134.673 105.42 134.331 106.064C134 106.708 133.502 107.225 132.839 107.613C132.176 108.002 131.356 108.196 130.38 108.196C129.395 108.196 128.566 108.002 127.893 107.613C127.229 107.225 126.727 106.708 126.386 106.064C126.045 105.42 125.874 104.714 125.874 103.946ZM128.589 102.852V103.946C128.589 104.278 128.651 104.595 128.774 104.899C128.907 105.192 129.106 105.434 129.371 105.623C129.646 105.803 129.977 105.893 130.366 105.893C130.773 105.893 131.105 105.803 131.361 105.623C131.617 105.434 131.806 105.192 131.929 104.899C132.053 104.595 132.114 104.278 132.114 103.946V102.852C132.114 102.501 132.048 102.179 131.915 101.885C131.792 101.582 131.598 101.34 131.332 101.16C131.077 100.971 130.745 100.876 130.337 100.876C129.958 100.876 129.636 100.971 129.371 101.16C129.106 101.34 128.907 101.582 128.774 101.885C128.651 102.179 128.589 102.501 128.589 102.852ZM135.767 115.587V114.493C135.767 113.716 135.938 113.005 136.279 112.361C136.629 111.716 137.136 111.2 137.799 110.811C138.472 110.423 139.297 110.229 140.273 110.229C141.258 110.229 142.082 110.423 142.746 110.811C143.409 111.2 143.911 111.716 144.252 112.361C144.593 113.005 144.764 113.716 144.764 114.493V115.587C144.764 116.364 144.593 117.075 144.252 117.719C143.921 118.363 143.423 118.88 142.76 119.268C142.097 119.657 141.277 119.851 140.301 119.851C139.316 119.851 138.486 119.657 137.814 119.268C137.141 118.88 136.629 118.363 136.279 117.719C135.938 117.075 135.767 116.364 135.767 115.587ZM138.496 114.493V115.587C138.496 115.928 138.572 116.25 138.723 116.554C138.875 116.857 139.083 117.098 139.349 117.278C139.624 117.458 139.941 117.548 140.301 117.548C140.756 117.548 141.111 117.458 141.367 117.278C141.623 117.098 141.798 116.857 141.893 116.554C141.997 116.25 142.049 115.928 142.049 115.587V114.493C142.049 114.151 141.983 113.834 141.85 113.54C141.718 113.237 141.519 112.995 141.253 112.815C140.998 112.626 140.671 112.531 140.273 112.531C139.875 112.531 139.543 112.626 139.278 112.815C139.022 112.995 138.828 113.237 138.695 113.54C138.562 113.834 138.496 114.151 138.496 114.493ZM141.282 101.828L131.176 118.003L129.186 116.951L139.292 100.777L141.282 101.828Z" fill="black"/>
<defs>
<filter id="filter0_d_395_1774" x="8.41048" y="0.582201" width="216.572" height="216.571" filterUnits="userSpaceOnUse" color-interpolation-filters="sRGB">
<feFlood flood-opacity="0" result="BackgroundImageFix"/>
<feColorMatrix in="SourceAlpha" type="matrix" values="0 0 0 0 0 0 0 0 0 0 0 0 0 0 0 0 0 0 127 0" result="hardAlpha"/>
<feMorphology radius="13.9723" operator="dilate" in="SourceAlpha" result="effect1_dropShadow_395_1774"/>
<feOffset/>
<feComposite in2="hardAlpha" operator="out"/>
<feColorMatrix type="matrix" values="0 0 0 0 0 0 0 0 0 0 0 0 0 0 0 0 0 0 0.02 0"/>
<feBlend mode="normal" in2="BackgroundImageFix" result="effect1_dropShadow_395_1774"/>
<feBlend mode="normal" in="SourceGraphic" in2="effect1_dropShadow_395_1774" result="shape"/>
</filter>
<linearGradient id="paint0_linear_395_1774" x1="22.3828" y1="110.032" x2="211.009" y2="110.032" gradientUnits="userSpaceOnUse">
<stop stop-color="#0041B0"/>
<stop offset="1" stop-color="#6EA0F8"/>
</linearGradient>
</defs>
</svg>
