<svg width="56" height="55" viewBox="0 0 56 55" fill="none" xmlns="http://www.w3.org/2000/svg">
<path d="M55.0877 27.4709C55.0877 42.6427 42.7559 54.9419 27.5439 54.9419C12.3318 54.9419 0 42.6427 0 27.4709C0 12.2992 12.3318 0 27.5439 0C42.7559 0 55.0877 12.2992 55.0877 27.4709Z" fill="url(#paint0_linear_451_2885)"/>
<path fill-rule="evenodd" clip-rule="evenodd" d="M17.4277 24.0742C17.4277 21.3774 19.614 19.1911 22.3109 19.1911H33.1051C35.802 19.1911 37.9883 21.3774 37.9883 24.0742V31.2704C37.9883 33.9673 35.802 36.1535 33.1051 36.1535H22.3109C19.614 36.1535 17.4277 33.9673 17.4277 31.2704V24.0742ZM22.3109 20.7331C20.4656 20.7331 18.9698 22.229 18.9698 24.0742V31.2704C18.9698 33.1156 20.4656 34.6115 22.3109 34.6115H33.1051C34.9504 34.6115 36.4462 33.1156 36.4462 31.2704V24.0742C36.4462 22.229 34.9504 20.7331 33.1051 20.7331H22.3109Z" fill="white"/>
<path fill-rule="evenodd" clip-rule="evenodd" d="M25.1376 23.8172C24.4279 23.8172 23.8526 24.3926 23.8526 25.1023C23.8526 25.812 24.4279 26.3873 25.1376 26.3873C25.8473 26.3873 26.4227 25.812 26.4227 25.1023C26.4227 24.3926 25.8473 23.8172 25.1376 23.8172ZM22.3105 25.1023C22.3105 23.5409 23.5763 22.2752 25.1376 22.2752C26.699 22.2752 27.9647 23.5409 27.9647 25.1023C27.9647 26.6636 26.699 27.9294 25.1376 27.9294C23.5763 27.9294 22.3105 26.6636 22.3105 25.1023Z" fill="white"/>
<path fill-rule="evenodd" clip-rule="evenodd" d="M20.7676 32.2985C20.7676 30.1693 22.4936 28.4434 24.6227 28.4434H25.6507C27.7798 28.4434 29.5058 30.1693 29.5058 32.2985C29.5058 32.7243 29.1606 33.0695 28.7348 33.0695C28.309 33.0695 27.9638 32.7243 27.9638 32.2985C27.9638 31.021 26.9282 29.9854 25.6507 29.9854H24.6227C23.3452 29.9854 22.3096 31.021 22.3096 32.2985C22.3096 32.7243 21.9644 33.0695 21.5386 33.0695C21.1128 33.0695 20.7676 32.7243 20.7676 32.2985Z" fill="white"/>
<path fill-rule="evenodd" clip-rule="evenodd" d="M30.0195 26.1303C30.0195 25.7045 30.3647 25.3593 30.7906 25.3593H33.8746C34.3005 25.3593 34.6457 25.7045 34.6457 26.1303C34.6457 26.5561 34.3005 26.9013 33.8746 26.9013H30.7906C30.3647 26.9013 30.0195 26.5561 30.0195 26.1303Z" fill="white"/>
<path fill-rule="evenodd" clip-rule="evenodd" d="M30.0195 29.2144C30.0195 28.7886 30.3647 28.4434 30.7906 28.4434H33.8746C34.3005 28.4434 34.6457 28.7886 34.6457 29.2144C34.6457 29.6402 34.3005 29.9854 33.8746 29.9854H30.7906C30.3647 29.9854 30.0195 29.6402 30.0195 29.2144Z" fill="white"/>
<defs>
<linearGradient id="paint0_linear_451_2885" x1="55.0877" y1="67.064" x2="4.84675" y2="19.838" gradientUnits="userSpaceOnUse">
<stop stop-color="#4B7BC0"/>
<stop offset="1" stop-color="#3F5AC2"/>
</linearGradient>
</defs>
</svg>
