<svg width="56" height="56" viewBox="0 0 56 56" fill="none" xmlns="http://www.w3.org/2000/svg">
<ellipse cx="27.7255" cy="28.1511" rx="27.5439" ry="27.4709" fill="url(#paint0_linear_809_6687)"/>
<path d="M32.6477 30.7497C32.7233 31.6568 33.5548 32.3203 34.4619 32.3203H36.0577V33.3198C36.0577 35.0584 34.6383 36.4778 32.8997 36.4778H24.4083C24.6687 36.2595 24.8954 35.9907 25.0718 35.6883C25.3826 35.1844 25.559 34.5881 25.559 33.9581C25.559 32.102 24.0555 30.5985 22.1994 30.5985C21.4099 30.5985 20.6791 30.8757 20.0996 31.3377V27.6673C20.0996 25.9287 21.519 24.5093 23.2576 24.5093H32.8997C34.6383 24.5093 36.0577 25.9287 36.0577 27.6673V28.8768H34.3611C33.8907 28.8768 33.4624 29.0615 33.1516 29.3807C32.7989 29.725 32.5973 30.2206 32.6477 30.7497Z" stroke="white" stroke-width="1.25985" stroke-linecap="round" stroke-linejoin="round"/>
<path d="M20.0996 28.4232V24.5849C20.0996 23.5854 20.7127 22.6951 21.645 22.3423L28.3138 19.8226C29.3553 19.4279 30.4724 20.2006 30.4724 21.3177V24.5093" stroke="white" stroke-width="1.25985" stroke-linecap="round" stroke-linejoin="round"/>
<path d="M36.9466 31.4638C36.9466 31.9257 36.5771 32.3037 36.1067 32.3205H34.4605C33.5534 32.3205 32.7219 31.6569 32.6463 30.7499C32.5959 30.2207 32.7975 29.7252 33.1503 29.3808C33.461 29.0616 33.8894 28.8769 34.3597 28.8769H36.1067C36.5771 28.8937 36.9466 29.2716 36.9466 29.7336V31.4638Z" stroke="white" stroke-width="1.25985" stroke-linecap="round" stroke-linejoin="round"/>
<path d="M23.877 28.0788H29.7562" stroke="white" stroke-width="1.25985" stroke-linecap="round" stroke-linejoin="round"/>
<path d="M25.0699 35.6883C24.8936 35.9907 24.6668 36.2594 24.4064 36.4778C23.8185 37.0069 23.0458 37.3177 22.1975 37.3177C20.9712 37.3177 19.9046 36.6626 19.325 35.6883C19.0143 35.1844 18.8379 34.588 18.8379 33.9581C18.8379 32.8998 19.325 31.9508 20.0977 31.3376C20.6773 30.8757 21.408 30.5985 22.1975 30.5985C24.0537 30.5985 25.5571 32.1019 25.5571 33.9581C25.5571 34.588 25.3807 35.1844 25.0699 35.6883Z" stroke="white" stroke-width="1.25985" stroke-linecap="round" stroke-linejoin="round"/>
<path d="M20.8906 33.9577L21.7221 34.7892L23.5111 33.1346" stroke="white" stroke-width="1.25985" stroke-linecap="round" stroke-linejoin="round"/>
<defs>
<linearGradient id="paint0_linear_809_6687" x1="55.2694" y1="47.7732" x2="5.0284" y2="0.547254" gradientUnits="userSpaceOnUse">
<stop stop-color="#4B7BC0"/>
<stop offset="1" stop-color="#3F5AC2"/>
</linearGradient>
</defs>
</svg>
