<svg width="56" height="56" viewBox="0 0 56 56" fill="none" xmlns="http://www.w3.org/2000/svg">
<ellipse cx="27.7255" cy="28.1511" rx="27.5439" ry="27.4709" fill="url(#paint0_linear_818_6696)"/>
<path fill-rule="evenodd" clip-rule="evenodd" d="M28.2295 27.2035C25.8753 27.2035 23.9668 25.3001 23.9668 22.9521C23.9668 20.6041 25.8753 18.7006 28.2295 18.7006C30.5838 18.7006 32.4923 20.6041 32.4923 22.9521C32.4923 25.3001 30.5838 27.2035 28.2295 27.2035Z" stroke="white" stroke-width="1.28071" stroke-linecap="round" stroke-linejoin="round"/>
<path d="M20.9062 35.7064C20.9062 32.4157 24.1886 29.7543 28.2296 29.7543C29.0481 29.7543 29.841 29.8649 30.5827 30.0689" stroke="white" stroke-width="1.28071" stroke-linecap="round" stroke-linejoin="round"/>
<path d="M36.2615 34.0569C36.0824 34.363 35.8522 34.6351 35.5879 34.8561C34.9912 35.3918 34.2068 35.7064 33.3457 35.7064C32.101 35.7064 31.0183 35.0432 30.43 34.0569C30.1146 33.5467 29.9355 32.943 29.9355 32.3053C29.9355 31.2339 30.43 30.2731 31.2144 29.6524C31.8026 29.1847 32.5443 28.9041 33.3457 28.9041C35.2299 28.9041 36.7559 30.4261 36.7559 32.3053C36.7559 32.943 36.5769 33.5467 36.2615 34.0569Z" stroke="white" stroke-width="1.28071" stroke-linecap="round" stroke-linejoin="round"/>
<path fill-rule="evenodd" clip-rule="evenodd" d="M35.8386 30.1614C36.0538 30.3767 36.0538 30.7257 35.8386 30.941L34.2795 32.5L35.8386 34.059C36.0538 34.2743 36.0538 34.6233 35.8386 34.8386C35.6233 35.0538 35.2743 35.0538 35.059 34.8386L33.5 33.2795L31.941 34.8386C31.7257 35.0538 31.3767 35.0538 31.1614 34.8386C30.9462 34.6233 30.9462 34.2743 31.1614 34.059L32.7205 32.5L31.1614 30.941C30.9462 30.7257 30.9462 30.3767 31.1614 30.1614C31.3767 29.9462 31.7257 29.9462 31.941 30.1614L33.5 31.7205L35.059 30.1614C35.2743 29.9462 35.6233 29.9462 35.8386 30.1614Z" fill="white"/>
<defs>
<linearGradient id="paint0_linear_818_6696" x1="55.2694" y1="47.7732" x2="5.0284" y2="0.547254" gradientUnits="userSpaceOnUse">
<stop stop-color="#4B7BC0"/>
<stop offset="1" stop-color="#3F5AC2"/>
</linearGradient>
</defs>
</svg>
