<svg width="20" height="22" viewBox="0 0 20 22" fill="none" xmlns="http://www.w3.org/2000/svg">
<path d="M12.2011 1.83334C12.2011 2.47636 11.9689 3.09304 11.5556 3.54772C11.1422 4.0024 10.5816 4.25783 9.99705 4.25783C9.41249 4.25783 8.85188 4.0024 8.43853 3.54772C8.02518 3.09304 7.79297 2.47636 7.79297 1.83334" stroke="#1068FF" stroke-width="1.32554" stroke-miterlimit="10"/>
<path d="M15.3311 16.103H17.3502C17.5008 16.1034 17.6461 16.0412 17.7566 15.9287C17.8672 15.8161 17.935 15.6617 17.9463 15.4965L18.3327 9.86746L16.879 4.47683C16.8432 4.32907 16.7594 4.20089 16.6434 4.11659L12.8054 1.94738C12.7168 1.87846 12.6122 1.83889 12.5038 1.83334H7.50666C7.39708 1.83371 7.28993 1.86881 7.19801 1.93442L3.36237 4.10363C3.2467 4.18829 3.16296 4.31633 3.12677 4.46387L1.66602 9.86746L2.06183 15.5069C2.07314 15.6721 2.14091 15.8265 2.25149 15.939C2.36207 16.0515 2.50728 16.1138 2.65791 16.1133H4.69589" stroke="#1068FF" stroke-width="1.32554" stroke-miterlimit="10"/>
<path d="M4.68164 9.34912V17.1422C4.68081 17.6716 4.86413 18.1813 5.19399 18.5668C5.52386 18.9523 5.97529 19.1844 6.45575 19.2155C7.59008 19.4427 8.74026 19.5607 9.89322 19.568H10.1076C11.2606 19.5608 12.4108 19.4428 13.5451 19.2155V19.2155C14.026 19.1851 14.478 18.9533 14.8083 18.5677C15.1387 18.1821 15.3223 17.672 15.3215 17.1422V9.34912" stroke="#1068FF" stroke-width="1.32554" stroke-miterlimit="10" stroke-linecap="round"/>
</svg>
